<svg id="instagram" width="30" height="30" viewBox="0 0 30 30" xmlns="http://www.w3.org/2000/svg">
<path d="M20.0834 10.4167H20.0917M11.3334 6.66669H19.6667C21.9679 6.66669 23.8334 8.53217 23.8334 10.8334V19.1667C23.8334 21.4679 21.9679 23.3334 19.6667 23.3334H11.3334C9.03223 23.3334 7.16675 21.4679 7.16675 19.1667V10.8334C7.16675 8.53217 9.03223 6.66669 11.3334 6.66669ZM18.8334 14.475C18.9363 15.1686 18.8178 15.8769 18.4949 16.4992C18.172 17.1215 17.661 17.6262 17.0348 17.9414C16.4085 18.2566 15.6988 18.3664 15.0066 18.255C14.3144 18.1436 13.6749 17.8168 13.1791 17.321C12.6833 16.8252 12.3565 16.1857 12.2451 15.4935C12.1338 14.8013 12.2435 14.0916 12.5587 13.4653C12.8739 12.8391 13.3786 12.3281 14.0009 12.0052C14.6232 11.6823 15.3315 11.5638 16.0251 11.6667C16.7325 11.7716 17.3875 12.1012 17.8932 12.6069C18.3989 13.1126 18.7285 13.7676 18.8334 14.475Z" stroke="white" stroke-linecap="round" stroke-linejoin="round"/>
</svg>
