<svg id="linkedin" width="30" height="30" viewBox="0 0 30 30" xmlns="http://www.w3.org/2000/svg">
<path d="M18.8334 11.6667C20.1595 11.6667 21.4313 12.1935 22.3689 13.1312C23.3066 14.0688 23.8334 15.3406 23.8334 16.6667V22.5H20.5001V16.6667C20.5001 16.2247 20.3245 15.8007 20.0119 15.4882C19.6994 15.1756 19.2754 15 18.8334 15C18.3914 15 17.9675 15.1756 17.6549 15.4882C17.3423 15.8007 17.1667 16.2247 17.1667 16.6667V22.5H13.8334V16.6667C13.8334 15.3406 14.3602 14.0688 15.2979 13.1312C16.2356 12.1935 17.5073 11.6667 18.8334 11.6667Z" stroke="white" stroke-linecap="round" stroke-linejoin="round"/>
<path d="M10.5001 12.5H7.16675V22.5H10.5001V12.5Z" stroke="white" stroke-linecap="round" stroke-linejoin="round"/>
<path d="M8.83341 10C9.75389 10 10.5001 9.25383 10.5001 8.33335C10.5001 7.41288 9.75389 6.66669 8.83341 6.66669C7.91294 6.66669 7.16675 7.41288 7.16675 8.33335C7.16675 9.25383 7.91294 10 8.83341 10Z" stroke="white" stroke-linecap="round" stroke-linejoin="round"/>
</svg>
