<svg width="123" height="29" viewBox="0 0 123 29" fill="none" xmlns="http://www.w3.org/2000/svg">
<g filter="url(#filter0_d_372_1889)">
<path d="M29.7969 16.5C29.4323 16.5 29.25 16.3047 29.25 15.9141V5.88281C29.25 5.49219 29.4323 5.29688 29.7969 5.29688H30.9844C31.349 5.29688 31.5312 5.49219 31.5312 5.88281V15.9141C31.5312 16.3047 31.349 16.5 30.9844 16.5H29.7969ZM33.6328 7.29688C33.2422 7.29688 33.0469 7.1276 33.0469 6.78906V5.80469C33.0469 5.46615 33.2422 5.29688 33.6328 5.29688H41.6641C42.0547 5.29688 42.25 5.46615 42.25 5.80469V6.78906C42.25 7.1276 42.0547 7.29688 41.6641 7.29688H38.7891V16.0703C38.7891 16.3568 38.6589 16.5 38.3984 16.5H36.8984C36.638 16.5 36.5078 16.3568 36.5078 16.0703V7.29688H33.6328ZM43.8984 15.6641C43.5755 15.4193 43.4974 15.1719 43.6641 14.9219L44.2656 14.0156C44.4635 13.7188 44.7526 13.7031 45.1328 13.9688C45.4245 14.1719 45.8047 14.3828 46.2734 14.6016C46.7474 14.8151 47.2448 14.9219 47.7656 14.9219C48.1302 14.9219 48.4818 14.8802 48.8203 14.7969C49.1589 14.7135 49.4167 14.5521 49.5938 14.3125C49.7708 14.0729 49.8594 13.7891 49.8594 13.4609C49.8594 13.2266 49.8203 13.0208 49.7422 12.8438C49.6641 12.6667 49.5365 12.5208 49.3594 12.4062C49.1823 12.2917 49 12.1953 48.8125 12.1172C48.4844 11.9818 48.0703 11.849 47.5703 11.7188C47.0755 11.5833 46.5859 11.4219 46.1016 11.2344C45.6693 11.0677 45.2734 10.8385 44.9141 10.5469C44.5547 10.2552 44.276 9.92708 44.0781 9.5625C43.8802 9.19792 43.7812 8.71094 43.7812 8.10156C43.7812 7.3776 44.0156 6.75781 44.4844 6.24219C44.9531 5.72656 45.4922 5.39583 46.1016 5.25C46.7109 5.10417 47.3255 5.03125 47.9453 5.03125C48.5599 5.03125 49.1927 5.125 49.8438 5.3125C50.5 5.5 50.9948 5.73438 51.3281 6.01562C51.6562 6.29167 51.737 6.54167 51.5703 6.76562L50.9375 7.61719C50.724 7.90885 50.4375 7.93229 50.0781 7.6875C49.849 7.53125 49.5339 7.35677 49.1328 7.16406C48.737 6.97135 48.3229 6.875 47.8906 6.875C47.5833 6.875 47.2995 6.90104 47.0391 6.95312C46.7839 7.00521 46.5573 7.13021 46.3594 7.32812C46.1615 7.52604 46.0625 7.77083 46.0625 8.0625C46.0625 8.34375 46.1354 8.57292 46.2812 8.75C46.4271 8.92188 46.5885 9.05208 46.7656 9.14062C46.9427 9.22396 47.1224 9.29427 47.3047 9.35156C47.8672 9.53385 48.3698 9.69531 48.8125 9.83594C49.2552 9.97135 49.6641 10.1224 50.0391 10.2891C50.5599 10.5234 50.9583 10.7578 51.2344 10.9922C51.5104 11.2266 51.737 11.5469 51.9141 11.9531C52.0964 12.3594 52.1875 12.8438 52.1875 13.4062C52.1875 14.2396 51.9219 14.9297 51.3906 15.4766C50.8594 16.0182 50.2682 16.3672 49.6172 16.5234C48.9714 16.6849 48.3411 16.7656 47.7266 16.7656C46.8203 16.7656 46.0833 16.6771 45.5156 16.5C44.9479 16.3281 44.4089 16.0495 43.8984 15.6641ZM53.3594 12.3984C53.3594 11.0703 53.7005 10.0286 54.3828 9.27344C55.0703 8.51823 56.0911 8.14062 57.4453 8.14062C58.7995 8.14062 59.8177 8.51823 60.5 9.27344C61.1875 10.0286 61.5312 11.0703 61.5312 12.3984C61.5312 13.7266 61.1875 14.7682 60.5 15.5234C59.8177 16.2786 58.7995 16.6562 57.4453 16.6562C56.0911 16.6562 55.0703 16.2786 54.3828 15.5234C53.7005 14.7682 53.3594 13.7266 53.3594 12.3984ZM55.6719 12.3984C55.6719 13.388 55.8229 14.0911 56.125 14.5078C56.4323 14.9193 56.8724 15.125 57.4453 15.125C58.0182 15.125 58.4557 14.9193 58.7578 14.5078C59.0651 14.0911 59.2188 13.388 59.2188 12.3984C59.2188 11.4089 59.0651 10.7083 58.7578 10.2969C58.4557 9.88021 58.0182 9.67188 57.4453 9.67188C56.8724 9.67188 56.4323 9.88021 56.125 10.2969C55.8229 10.7083 55.6719 11.4089 55.6719 12.3984ZM62.9453 9.85938C62.638 9.85938 62.4844 9.72917 62.4844 9.46875V8.6875C62.4844 8.42708 62.638 8.29688 62.9453 8.29688H63.3828V7.20312C63.3828 6.24479 63.6562 5.60677 64.2031 5.28906C64.75 4.97135 65.401 4.8125 66.1562 4.8125C66.5156 4.8125 66.8229 4.83333 67.0781 4.875C67.3385 4.91667 67.5677 4.96875 67.7656 5.03125C67.9531 5.09375 68.0208 5.22396 67.9688 5.42188L67.7344 6.30469C67.6875 6.47656 67.5677 6.52865 67.375 6.46094C67.2604 6.41927 67.099 6.39062 66.8906 6.375C66.6875 6.35417 66.526 6.34375 66.4062 6.34375C66.026 6.34375 65.7917 6.47656 65.7031 6.74219C65.6146 7.00781 65.5703 7.42188 65.5703 7.98438V8.29688H66.6016C66.9089 8.29688 67.0625 8.42708 67.0625 8.6875V9.46875C67.0625 9.72917 66.9089 9.85938 66.6016 9.85938H65.5703V16.0312C65.5703 16.3438 65.4141 16.5 65.1016 16.5H63.8516C63.5391 16.5 63.3828 16.3438 63.3828 16.0312V9.85938H62.9453ZM68.2734 9.85938C67.9661 9.85938 67.8125 9.72917 67.8125 9.46875V8.6875C67.8125 8.42708 67.9661 8.29688 68.2734 8.29688H68.8047V8.02344C68.8047 7.78906 68.8594 7.57552 68.9688 7.38281L69.5703 6.32812C69.6849 6.13021 69.8203 6.03125 69.9766 6.03125H70.5234C70.8359 6.03125 70.9922 6.1875 70.9922 6.5V8.29688H72.2578C72.5651 8.29688 72.7188 8.42708 72.7188 8.6875V9.46875C72.7188 9.72917 72.5651 9.85938 72.2578 9.85938H70.9922V13.7344C70.9922 14.2656 71.0286 14.6484 71.1016 14.8828C71.1797 15.112 71.3776 15.2266 71.6953 15.2266C71.8568 15.2266 72.0391 15.2005 72.2422 15.1484C72.4453 15.0911 72.6042 15.0365 72.7188 14.9844C72.901 14.901 73.0208 14.9609 73.0781 15.1641L73.3125 16.0547C73.3594 16.2318 73.2917 16.362 73.1094 16.4453C72.9375 16.5234 72.7005 16.5938 72.3984 16.6562C72.1016 16.724 71.8021 16.7578 71.5 16.7578C70.7552 16.7578 70.1198 16.6042 69.5938 16.2969C69.0677 15.9896 68.8047 15.3568 68.8047 14.3984V9.85938H68.2734ZM74.25 5.8125C74.1198 5.46875 74.2422 5.29688 74.6172 5.29688H75.8594C76.2083 5.29688 76.4479 5.47656 76.5781 5.83594L78.9688 12.3594C79.0885 12.6927 79.1589 12.9167 79.1797 13.0312C79.2005 13.1406 79.224 13.3255 79.25 13.5859H79.2812C79.3073 13.3255 79.3307 13.1406 79.3516 13.0312C79.3724 12.9167 79.4427 12.6927 79.5625 12.3594L81.9531 5.83594C82.0833 5.47656 82.3229 5.29688 82.6719 5.29688H83.9141C84.2891 5.29688 84.4115 5.46875 84.2812 5.8125L80.5469 15.8672C80.3906 16.2891 80.1458 16.5 79.8125 16.5H78.7188C78.3854 16.5 78.1406 16.2891 77.9844 15.8672L74.25 5.8125ZM85.9531 16.5C85.6406 16.5 85.4844 16.3438 85.4844 16.0312V8.76562C85.4844 8.45312 85.6406 8.29688 85.9531 8.29688H87.2031C87.5156 8.29688 87.6719 8.45312 87.6719 8.76562V16.0312C87.6719 16.3438 87.5156 16.5 87.2031 16.5H85.9531ZM85.9531 7.09375C85.6406 7.09375 85.4844 6.9375 85.4844 6.625V5.625C85.4844 5.3125 85.6406 5.15625 85.9531 5.15625H87.2031C87.5156 5.15625 87.6719 5.3125 87.6719 5.625V6.625C87.6719 6.9375 87.5156 7.09375 87.2031 7.09375H85.9531ZM89.6328 15.9531C89.3776 15.7708 89.3073 15.5755 89.4219 15.3672L89.8203 14.6406C89.9609 14.3802 90.1797 14.349 90.4766 14.5469C90.7734 14.7448 91.1224 14.8906 91.5234 14.9844C91.9297 15.0781 92.2995 15.125 92.6328 15.125C92.8672 15.125 93.0859 15.1016 93.2891 15.0547C93.4922 15.0078 93.6641 14.9167 93.8047 14.7812C93.9453 14.6458 94.0156 14.4479 94.0156 14.1875C94.0156 14.0312 93.974 13.8984 93.8906 13.7891C93.8073 13.6797 93.7005 13.5964 93.5703 13.5391C93.4401 13.4818 93.3021 13.4349 93.1562 13.3984C92.9635 13.3516 92.6849 13.2734 92.3203 13.1641C91.9609 13.0547 91.6146 12.9271 91.2812 12.7812C91.0052 12.6615 90.7344 12.4948 90.4688 12.2812C90.2083 12.0625 90.0156 11.8203 89.8906 11.5547C89.7708 11.2891 89.7109 10.9609 89.7109 10.5703C89.7109 10.0443 89.862 9.58333 90.1641 9.1875C90.4714 8.79167 90.8672 8.51823 91.3516 8.36719C91.8359 8.21615 92.4401 8.14062 93.1641 8.14062C93.6536 8.14062 94.1302 8.21094 94.5938 8.35156C95.0573 8.49219 95.388 8.625 95.5859 8.75C95.8984 8.94792 95.9766 9.15885 95.8203 9.38281L95.3438 10.0781C95.1979 10.2865 94.9635 10.3021 94.6406 10.125C94.3958 9.98958 94.1536 9.88021 93.9141 9.79688C93.6797 9.71354 93.4167 9.67188 93.125 9.67188C92.9271 9.67188 92.737 9.69271 92.5547 9.73438C92.3724 9.77604 92.2161 9.85417 92.0859 9.96875C91.9609 10.0833 91.8984 10.2344 91.8984 10.4219C91.8984 10.6198 91.9557 10.776 92.0703 10.8906C92.1901 11 92.3255 11.0807 92.4766 11.1328C92.6328 11.1849 92.7812 11.2344 92.9219 11.2812C93.2135 11.375 93.5078 11.4661 93.8047 11.5547C94.1016 11.638 94.4036 11.7396 94.7109 11.8594C94.9766 11.9635 95.2344 12.112 95.4844 12.3047C95.7344 12.4974 95.9167 12.7422 96.0312 13.0391C96.1458 13.3359 96.2031 13.6745 96.2031 14.0547C96.2031 14.5599 96.0521 15.0286 95.75 15.4609C95.4479 15.8932 95.0495 16.2005 94.5547 16.3828C94.0599 16.5651 93.4844 16.6562 92.8281 16.6562C92.0938 16.6562 91.4688 16.6042 90.9531 16.5C90.4375 16.3958 89.9974 16.2135 89.6328 15.9531ZM98.125 16.5C97.8125 16.5 97.6562 16.3438 97.6562 16.0312V8.76562C97.6562 8.45312 97.8125 8.29688 98.125 8.29688H99.375C99.6875 8.29688 99.8438 8.45312 99.8438 8.76562V16.0312C99.8438 16.3438 99.6875 16.5 99.375 16.5H98.125ZM98.125 7.09375C97.8125 7.09375 97.6562 6.9375 97.6562 6.625V5.625C97.6562 5.3125 97.8125 5.15625 98.125 5.15625H99.375C99.6875 5.15625 99.8438 5.3125 99.8438 5.625V6.625C99.8438 6.9375 99.6875 7.09375 99.375 7.09375H98.125ZM101.531 12.3984C101.531 11.0703 101.872 10.0286 102.555 9.27344C103.242 8.51823 104.263 8.14062 105.617 8.14062C106.971 8.14062 107.99 8.51823 108.672 9.27344C109.359 10.0286 109.703 11.0703 109.703 12.3984C109.703 13.7266 109.359 14.7682 108.672 15.5234C107.99 16.2786 106.971 16.6562 105.617 16.6562C104.263 16.6562 103.242 16.2786 102.555 15.5234C101.872 14.7682 101.531 13.7266 101.531 12.3984ZM103.844 12.3984C103.844 13.388 103.995 14.0911 104.297 14.5078C104.604 14.9193 105.044 15.125 105.617 15.125C106.19 15.125 106.628 14.9193 106.93 14.5078C107.237 14.0911 107.391 13.388 107.391 12.3984C107.391 11.4089 107.237 10.7083 106.93 10.2969C106.628 9.88021 106.19 9.67188 105.617 9.67188C105.044 9.67188 104.604 9.88021 104.297 10.2969C103.995 10.7083 103.844 11.4089 103.844 12.3984ZM111.859 16.5C111.547 16.5 111.391 16.3438 111.391 16.0312V8.76562C111.391 8.45312 111.547 8.29688 111.859 8.29688H113.094C113.406 8.29688 113.562 8.45312 113.562 8.76562V9.21875H113.594C113.833 8.80729 114.138 8.52604 114.508 8.375C114.878 8.21875 115.323 8.14062 115.844 8.14062C116.656 8.14062 117.328 8.39583 117.859 8.90625C118.391 9.41667 118.656 10.349 118.656 11.7031V16.0312C118.656 16.3438 118.5 16.5 118.188 16.5H116.938C116.625 16.5 116.469 16.3438 116.469 16.0312V12.2656C116.469 11.1302 116.391 10.4141 116.234 10.1172C116.078 9.82031 115.742 9.67188 115.227 9.67188C114.68 9.67188 114.268 9.88542 113.992 10.3125C113.716 10.7344 113.578 11.6146 113.578 12.9531V16.0312C113.578 16.3438 113.422 16.5 113.109 16.5H111.859Z" fill="white"/>
<path d="M24 0.5H4V4.84109H19.52V11.9729H24V0.5Z" fill="white"/>
<path d="M4 11.9729V7.94186H8V11.9729H4Z" fill="white"/>
<path d="M16 7.94186H11.68V20.5H16V7.94186Z" fill="white"/>
<path d="M8 18.5C8 19.6046 7.10457 20.5 6 20.5C4.89543 20.5 4 19.6046 4 18.5C4 17.3954 4.89543 16.5 6 16.5C7.10457 16.5 8 17.3954 8 18.5Z" fill="white"/>
<path d="M24 18.5C24 19.6046 23.1046 20.5 22 20.5C20.8954 20.5 20 19.6046 20 18.5C20 17.3954 20.8954 16.5 22 16.5C23.1046 16.5 24 17.3954 24 18.5Z" fill="white"/>
</g>
<defs>
<filter id="filter0_d_372_1889" x="0" y="0.5" width="122.656" height="28" filterUnits="userSpaceOnUse" color-interpolation-filters="sRGB">
<feFlood flood-opacity="0" result="BackgroundImageFix"/>
<feColorMatrix in="SourceAlpha" type="matrix" values="0 0 0 0 0 0 0 0 0 0 0 0 0 0 0 0 0 0 127 0" result="hardAlpha"/>
<feOffset dy="4"/>
<feGaussianBlur stdDeviation="2"/>
<feComposite in2="hardAlpha" operator="out"/>
<feColorMatrix type="matrix" values="0 0 0 0 0 0 0 0 0 0 0 0 0 0 0 0 0 0 0.25 0"/>
<feBlend mode="normal" in2="BackgroundImageFix" result="effect1_dropShadow_372_1889"/>
<feBlend mode="normal" in="SourceGraphic" in2="effect1_dropShadow_372_1889" result="shape"/>
</filter>
</defs>
</svg>
